<?xml version="1.0" encoding="utf-8"?>
<!-- Svg Vector Icons : http://www.onlinewebfonts.com/icon -->
<!DOCTYPE svg PUBLIC "-//W3C//DTD SVG 1.1//EN" "http://www.w3.org/Graphics/SVG/1.1/DTD/svg11.dtd">
<svg version="1.1" xmlns="http://www.w3.org/2000/svg" xmlns:xlink="http://www.w3.org/1999/xlink" x="0px" y="0px" viewBox="0 0 1000 1000" enable-background="new 0 0 1000 1000" xml:space="preserve">
<metadata> Svg Vector Icons : http://www.onlinewebfonts.com/icon </metadata>
<g><path d="M849.2,10.6c19.3,0,37.6,3.7,54.8,11.2c17.1,7.5,32,17.5,44.7,30.2c12.7,12.7,22.7,27.4,30.2,44.1c7.5,16.8,11.2,34.8,11.2,54.2v699.5c0,19.4-3.7,37.5-11.2,54.2c-7.4,16.7-17.5,31.5-30.2,44.2c-12.6,12.7-27.6,22.7-44.7,30.2c-17.1,7.5-35.4,11.2-54.8,11.2h-209v-419h69.3c19.3,0,36-6.9,49.7-20.7c13.8-13.8,20.7-30.3,20.7-49.7c0-19.4-6.9-36-20.7-49.8c-13.8-13.7-30.4-20.6-49.7-20.6h-69.3c1.5-28.3,7.5-47.3,17.9-57c10.4-9.7,24.6-14.5,42.4-14.5h72.7c20.1,0,35.4-7.2,45.8-21.8c10.4-14.5,15.6-30.5,15.6-48c0-17.5-5-33.5-15.1-48c-10-14.5-25.5-21.8-46.3-21.8H652.5c-25.3,0-47.5,4.3-66.5,12.8c-19,8.6-35,20.3-48,35.2c-13,14.9-22.7,32-29,51.4c-6.3,19.3-9.5,40.2-9.5,62.6v49.2h-69.3c-19.4,0-35.9,6.9-49.8,20.6c-13.8,13.8-20.6,30.4-20.6,49.8c0,19.4,6.9,35.9,20.6,49.7c13.8,13.8,30.4,20.7,49.8,20.7h69.3v419H149.7c-19.4,0-37.4-3.7-54.2-11.2c-16.8-7.5-31.5-17.5-44.1-30.2c-12.7-12.7-22.7-27.4-30.2-44.2C13.7,887.2,10,869.1,10,849.7l0-699.5c0-19.4,3.7-37.4,11.2-54.2c7.5-16.7,17.5-31.4,30.2-44.1C64,39.2,78.7,29.2,95.5,21.7c16.7-7.4,34.8-11.2,54.2-11.2H849.2z"/></g>
</svg>